<?xml version="1.0" encoding="utf-8"?>
<!-- Generator: Adobe Illustrator 19.0.0, SVG Export Plug-In . SVG Version: 6.00 Build 0)  -->
<svg version="1.1" id="Layer_1" xmlns="http://www.w3.org/2000/svg" xmlns:xlink="http://www.w3.org/1999/xlink" x="px" y="0px" width="274px" height="150px"
	 viewBox="0 0 155.1 85" style="enable-background:new 0 0 155.1 85;" xml:space="preserve">
<style type="text/css">
	.st0{fill:none;}
	.st1{fill:#434343;}
</style>
<g id="XMLID_3_">
	<g id="XMLID_16_">
		
			<rect id="XMLID_70_" x="-76.7" y="55" transform="matrix(1 -4.089965e-003 4.089965e-003 1 -0.3267 0.3206)" class="st0" width="309.9" height="50.1"/>
		<path id="XMLID_49_" class="st1" d="M22.7,79.5l-13,0.1L7.2,85l-6.6,0l12.4-25.3l6.4,0L32,84.9l-6.8,0L22.7,79.5z M20.6,75.1
			l-4.5-9.6l-4.4,9.7L20.6,75.1z"/>
		<path id="XMLID_52_" class="st1" d="M34.8,59.7l6.5,0l0.1,20.4l14-0.1l0,4.8l-20.5,0.1L34.8,59.7z"/>
		<path id="XMLID_54_" class="st1" d="M77.5,60.6c1.8,0.7,3.2,1.8,4.2,3.2c1,1.4,1.5,3,1.5,4.9c0,1.8-0.5,3.5-1.5,4.8
			c-1,1.4-2.4,2.4-4.2,3.2c-1.8,0.7-4,1.1-6.5,1.1l-5.6,0l0,6.9l-6.5,0l-0.1-25.2l12.1,0C73.5,59.5,75.7,59.9,77.5,60.6z M75.2,71.9
			c1-0.8,1.5-1.8,1.5-3.2c0-1.4-0.5-2.5-1.5-3.3c-1-0.8-2.5-1.1-4.4-1.1l-5.3,0l0,8.7l5.3,0C72.7,73,74.2,72.6,75.2,71.9z"/>
		<path id="XMLID_58_" class="st1" d="M87.8,59.4l6.5,0l0.1,25.2l-6.5,0L87.8,59.4z"/>
		<path id="XMLID_60_" class="st1" d="M126.6,59.3l0.1,25.2l-5.3,0l-14-15.2l0.1,15.3l-6.4,0l-0.1-25.2l5.4,0l14,15.2l-0.1-15.3
			L126.6,59.3z"/>
		<path id="XMLID_62_" class="st1" d="M136.1,84.1c-2.1-0.5-3.7-1.2-5-2.1l2.2-4.4c1.2,0.8,2.6,1.4,4.3,1.9c1.7,0.5,3.3,0.7,5,0.7
			c1.8,0,3.2-0.3,4.1-0.8c0.9-0.5,1.3-1.2,1.3-2c0-0.6-0.3-1.1-0.8-1.5s-1.2-0.7-2-0.9c-0.8-0.2-1.9-0.5-3.3-0.8
			c-2.1-0.4-3.9-0.9-5.2-1.3c-1.4-0.4-2.5-1.2-3.5-2.2c-1-1-1.5-2.3-1.5-4c0-1.5,0.4-2.8,1.3-4c0.9-1.2,2.2-2.1,4-2.8
			c1.8-0.7,3.9-1.1,6.5-1.1c1.8,0,3.5,0.2,5.2,0.6c1.7,0.4,3.2,0.9,4.5,1.6l-2,4.4c-2.6-1.3-5.2-2-7.8-1.9c-1.8,0-3.2,0.3-4,0.8
			c-0.9,0.5-1.3,1.2-1.3,2.1c0,0.9,0.5,1.5,1.5,1.9c1,0.4,2.5,0.8,4.6,1.2c2.1,0.4,3.9,0.9,5.2,1.3c1.4,0.5,2.5,1.2,3.5,2.1
			c1,1,1.5,2.3,1.5,4c0,1.4-0.4,2.8-1.3,3.9c-0.9,1.2-2.2,2.1-4,2.8c-1.8,0.7-4,1.1-6.5,1.1C140.4,84.9,138.2,84.6,136.1,84.1z"/>
	</g>
	<path id="XMLID_4_" class="st1" d="M116.5,23.2l-11.6,8L74.3,0L52.8,22.4l-9.3-7.3L0,50l26.4-0.1l51.8-0.2l9.1,0l35.4-0.1l32.3-0.1
		L116.5,23.2z M44.6,35.1l0-2l-4,2.1l-1.8-0.8l-1.8,1.4l-2.9-1.4l-3.5,1.4l2.3-3.2l-11,5.2l21.6-17.3l4,3.1l-1.5,2l0.8,1.8l2.9,0
		l-0.5,2.9l3.8-2.4l1.5,1.2L44.6,35.1z M87.2,26.4l-2.3,1.8l-4.2-3.4l-7.4,6.9l0.3-2.8l4.4-9.8l-6.6,7.3L65,28.9l2.2-3.5l-1.5-1.1
		l-5.2,4.2l-5-3.9L74.4,5.1l5.9,6l-5.8,7.3l7.1-5.8L84,15l-2.7,4.4l3.3-2.4l2.6,2.6l-4.3,3.7L87.2,26.4z M120.2,39.9l3-5.3l-2.8,0.8
		l-2.4-0.8l-5.4,1.7l2.5-1.9l-0.6-0.8l-4.6,2.7l-2.4-2.4l9-6.2l2.8,1.9l-1.5,1.8l0.6,0.4l2.1-1.4l6.3,4.2L120.2,39.9z"/>
</g>
<g id="XMLID_1_">
</g>
<g id="XMLID_48_">
</g>
<g id="XMLID_71_">
</g>
<g id="XMLID_72_">
</g>
<g id="XMLID_73_">
</g>
<g id="XMLID_74_">
</g>
<g id="XMLID_75_">
</g>
<g id="XMLID_76_">
</g>
<g id="XMLID_77_">
</g>
<g id="XMLID_78_">
</g>
<g id="XMLID_79_">
</g>
<g id="XMLID_80_">
</g>
<g id="XMLID_81_">
</g>
<g id="XMLID_82_">
</g>
<g id="XMLID_83_">
</g>
</svg>
