<?xml version="1.0" encoding="utf-8"?>
<!-- Generator: Adobe Illustrator 19.0.0, SVG Export Plug-In . SVG Version: 6.00 Build 0)  -->
<svg version="1.1" id="Layer_1" xmlns="http://www.w3.org/2000/svg" xmlns:xlink="http://www.w3.org/1999/xlink" x="0px" y="0px" width="300px" height="83px"
	 viewBox="-329 239 300 83" style="enable-background:new -329 239 300 83;" xml:space="preserve">
<style type="text/css">
	.st0{fill:#379CF4;}
	.st1{fill:none;stroke:#191919;stroke-width:3;stroke-miterlimit:10;}
</style>
<path class="st0" d="M-259.9,254.9l-24.5-14.2c-1.8-1-4.1-1.6-6.7-1.6s-4.8,0.5-6.7,1.6l-24.5,14.2c-3.7,2.2-6.7,7.2-6.7,11.5v28.3
	c0,4.3,2.9,9.3,6.7,11.5l24.5,14.2c1.8,1,4.1,1.6,6.7,1.6s4.8-0.5,6.7-1.6l24.5-14.2c3.7-2.2,6.7-7.2,6.7-11.5v-28.4
	C-253.2,262.1-256.1,257-259.9,254.9z M-320.8,303.8c-2.8-1.6-5.2-5.8-5.2-9.1v-12.1c8.8-0.6,14,1.6,20.4,4.6
	c5.8,2.6,12.8,5.7,24.3,7.5c-2.1,0.5-4.3,0.8-6.5,1.2c-11.7,2-22.7,4-28.7,10.5L-320.8,303.8z M-283.9,279.1
	c-5.3,2.1-12.1,4-22.3,4.7c-4.5-2-8.8-3.7-14.4-4.1l18.7-18.7l13.8,13.8l0,0l0,0L-283.9,279.1z M-285.2,273.9l13.4-13.4l10.1,10.1
	c-5.8,0.5-9.9,2.6-14.4,4.8c-1.6,0.8-3.2,1.6-5.1,2.5L-285.2,273.9z M-255.9,294.6c0,3.3-2.4,7.5-5.3,9.1l-24.5,14.2
	c-1.4,0.7-3.3,1.3-5.3,1.3s-3.9-0.5-5.3-1.3l-18-10.3c5.6-5.5,15.9-7.3,26.8-9.2c12.3-2.2,25-4.4,31.5-12.3L-255.9,294.6
	L-255.9,294.6z M-255.9,281c-2.9,6.3-9.5,9.6-17.2,11.7c-13.5-1-21.4-3.7-27.9-6.6c13.3-1.6,20.4-5.2,26.3-8.2
	c5.7-2.9,10.4-5.3,18.9-4.6L-255.9,281L-255.9,281z M-255.9,270.6c-0.7-0.1-1.4-0.1-2-0.1l-12.9-12.9c-0.5-0.5-1.4-0.5-1.9,0
	l-14.4,14.4l-13.8-13.8c-0.5-0.5-1.4-0.5-1.9,0l-21.5,21.5c-0.5,0-1.1,0.1-1.6,0.1v-13.5c0-3.3,2.4-7.5,5.2-9.1l24.5-14.2
	c1.4-0.7,3.3-1.3,5.3-1.3s3.9,0.5,5.3,1.3l24.5,14.2c2.8,1.6,5.3,5.8,5.3,9.1L-255.9,270.6L-255.9,270.6z"/>
<g>
	<path class="st1" d="M-191.7,292.4h-14.2l-2.6,6.5h-9.6l14.7-33.4h9.3l14.8,33.4h-9.9L-191.7,292.4z M-194.5,285.4l-4.3-10.7
		l-4.3,10.7H-194.5z"/>
	<path class="st1" d="M-176.6,265.5h9.4v25.9h15.9v7.5h-25.4L-176.6,265.5L-176.6,265.5z"/>
	<path class="st1" d="M-124.4,267c2.2,1,3.9,2.5,5.1,4.3s1.8,4,1.8,6.6s-0.6,4.7-1.8,6.6c-1.2,1.8-2.9,3.3-5.1,4.3s-4.8,1.5-7.8,1.5
		h-5.8v8.8h-9.4v-33.4h15.2C-129.2,265.5-126.6,266-124.4,267z M-128.4,281.5c1-0.8,1.5-2,1.5-3.6s-0.5-2.7-1.5-3.6
		c-1-0.8-2.5-1.3-4.4-1.3h-5.2v9.8h5.2C-130.9,282.7-129.4,282.3-128.4,281.5z"/>
	<path class="st1" d="M-112.8,265.5h9.4v33.4h-9.4V265.5z"/>
	<path class="st1" d="M-64.9,265.5v33.4h-7.8l-14.7-17.8v17.8h-9.2v-33.4h7.8l14.7,17.8v-17.8H-64.9z"/>
	<path class="st1" d="M-54.4,298.6c-2.6-0.6-4.7-1.6-6.2-2.6l3.1-6.9c1.5,1,3.2,1.8,5.2,2.4s3.9,0.9,5.8,0.9c3.6,0,5.5-0.9,5.5-2.7
		c0-1-0.5-1.6-1.6-2.1c-1-0.5-2.7-0.9-5-1.5c-2.5-0.5-4.7-1.1-6.3-1.7s-3.1-1.6-4.3-3s-1.8-3.2-1.8-5.6c0-2,0.5-3.8,1.6-5.5
		c1.1-1.6,2.7-2.9,5-3.9c2.2-1,4.9-1.5,8.1-1.5c2.2,0,4.4,0.3,6.5,0.7c2.1,0.5,4,1.2,5.7,2.2l-2.9,7c-3.2-1.7-6.3-2.6-9.2-2.6
		c-1.9,0-3.3,0.3-4.1,0.8s-1.3,1.3-1.3,2.2s0.5,1.6,1.6,2c1,0.5,2.6,0.9,4.9,1.4c2.6,0.5,4.7,1.1,6.3,1.7s3.1,1.6,4.3,2.9
		c1.2,1.4,1.8,3.2,1.8,5.5c0,2-0.5,3.8-1.6,5.5s-2.8,2.9-5,3.9s-4.9,1.5-8.1,1.5C-49.3,299.6-51.9,299.2-54.4,298.6z"/>
</g>
</svg>
