<?xml version="1.0" encoding="utf-8"?>
<!-- Generator: Adobe Illustrator 19.0.0, SVG Export Plug-In . SVG Version: 6.00 Build 0)  -->
<svg version="1.1" id="Layer_1" xmlns="http://www.w3.org/2000/svg" xmlns:xlink="http://www.w3.org/1999/xlink" x="0px" y="0px" width="300px" height="83px"
	 viewBox="-329 235 327.7 91" style="enable-background:new -329 235 327.7 91;" xml:space="preserve">
<style type="text/css">
	.st0{fill:#FFFFFF;}
	.st1{fill:none;stroke:#FFFFFF;stroke-width:3;stroke-miterlimit:10;}
</style>
<path class="st0" d="M-253.4,252.4l-26.9-15.6c-2-1.1-4.5-1.7-7.3-1.7s-5.3,0.6-7.3,1.7l-26.9,15.6c-4.1,2.4-7.3,7.9-7.3,12.6V296
	c0,4.7,3.2,10.2,7.3,12.6l26.9,15.6c2,1.1,4.5,1.7,7.3,1.7s5.3-0.6,7.3-1.7l26.9-15.6c4.1-2.4,7.3-7.9,7.3-12.6v-31.1
	C-246.1,260.3-249.3,254.7-253.4,252.4z M-320.2,306c-3.1-1.8-5.7-6.4-5.7-10v-13.3c9.6-0.7,15.3,1.8,22.4,5
	c6.4,2.9,14,6.3,26.6,8.2c-2.3,0.5-4.7,0.9-7.1,1.3c-12.8,2.2-24.9,4.4-31.5,11.5L-320.2,306z M-279.8,279
	c-5.8,2.3-13.3,4.4-24.5,5.2c-4.9-2.2-9.6-4.1-15.8-4.5l20.5-20.5l15.1,15.1l0,0l0,0L-279.8,279z M-281.2,273.3l14.7-14.7l11.1,11.1
	c-6.4,0.6-10.8,2.8-15.8,5.3c-1.7,0.9-3.5,1.8-5.6,2.7L-281.2,273.3z M-249.1,296c0,3.6-2.6,8.2-5.8,10l-26.9,15.6
	c-1.5,0.8-3.6,1.4-5.8,1.4c-2.2,0-4.3-0.5-5.8-1.4l-19.7-11.3c6.1-6,17.4-8,29.4-10.1c13.5-2.4,27.4-4.8,34.5-13.5L-249.1,296
	L-249.1,296z M-249.1,281c-3.2,6.9-10.4,10.5-18.9,12.8c-14.8-1.1-23.5-4.1-30.6-7.2c14.6-1.7,22.4-5.7,28.8-9
	c6.3-3.2,11.4-5.8,20.7-5V281z M-249.1,269.6c-0.8-0.1-1.5-0.1-2.2-0.1l-14.1-14.1c-0.6-0.6-1.5-0.6-2.1,0l-15.8,15.8l-15.1-15.1
	c-0.6-0.6-1.5-0.6-2.1,0l-23.6,23.6c-0.6,0-1.2,0.1-1.8,0.1V265c0-3.6,2.6-8.2,5.7-10l26.9-15.6c1.5-0.8,3.6-1.4,5.8-1.4
	c2.2,0,4.3,0.5,5.8,1.4l26.9,15.6c3.1,1.8,5.8,6.4,5.8,10L-249.1,269.6L-249.1,269.6z"/>
<g>
	<path class="st1" d="M-178.7,293.6h-15.5l-2.9,7.1h-10.5l16.1-36.6h10.2l16.2,36.6h-10.8L-178.7,293.6z M-181.7,285.9l-4.7-11.7
		l-4.7,11.7H-181.7z"/>
	<path class="st1" d="M-162.1,264.1h10.3v28.4h17.4v8.2h-27.8V264.1z"/>
	<path class="st1" d="M-104.9,265.7c2.4,1.1,4.3,2.7,5.6,4.7c1.3,2,2,4.4,2,7.2s-0.7,5.1-2,7.2c-1.3,2-3.2,3.6-5.6,4.7
		c-2.4,1.1-5.3,1.6-8.6,1.6h-6.4v9.6h-10.3v-36.6h16.7C-110.2,264.1-107.3,264.6-104.9,265.7z M-109.3,281.6c1.1-0.9,1.6-2.2,1.6-4
		s-0.5-3-1.6-4c-1.1-0.9-2.7-1.4-4.8-1.4h-5.7v10.7h5.7C-112,282.9-110.4,282.5-109.3,281.6z"/>
	<path class="st1" d="M-92.2,264.1h10.3v36.6h-10.3V264.1z"/>
	<path class="st1" d="M-39.7,264.1v36.6h-8.5l-16.1-19.5v19.5h-10.1v-36.6h8.5l16.1,19.5v-19.5H-39.7z"/>
	<path class="st1" d="M-28.1,300.3c-2.8-0.7-5.1-1.7-6.8-2.9l3.4-7.6c1.6,1.1,3.5,2,5.7,2.6c2.2,0.7,4.3,1,6.4,1c4,0,6-1,6-3
		c0-1.1-0.6-1.8-1.7-2.3s-3-1-5.5-1.6c-2.7-0.6-5.1-1.2-6.9-1.9c-1.8-0.7-3.4-1.8-4.7-3.3c-1.3-1.5-2-3.5-2-6.1c0-2.2,0.6-4.2,1.8-6
		c1.2-1.8,3-3.2,5.5-4.3c2.4-1.1,5.4-1.6,8.9-1.6c2.4,0,4.8,0.3,7.1,0.8s4.4,1.3,6.2,2.4l-3.2,7.7c-3.5-1.9-6.9-2.8-10.1-2.8
		c-2.1,0-3.6,0.3-4.5,0.9c-0.9,0.6-1.4,1.4-1.4,2.4c0,1,0.6,1.7,1.7,2.2c1.1,0.5,2.9,1,5.4,1.5c2.8,0.6,5.1,1.2,6.9,1.9
		s3.4,1.8,4.7,3.2c1.3,1.5,2,3.5,2,6c0,2.2-0.6,4.2-1.8,6c-1.2,1.8-3.1,3.2-5.5,4.3s-5.4,1.6-8.9,1.6
		C-22.5,301.4-25.4,301-28.1,300.3z"/>
</g>
</svg>
